<?xml version="1.0" encoding="iso-8859-1"?>
<!-- Generator: Adobe Illustrator 19.0.0, SVG Export Plug-In . SVG Version: 6.00 Build 0)  -->
<svg xmlns="http://www.w3.org/2000/svg" xmlns:xlink="http://www.w3.org/1999/xlink" version="1.1" id="Capa_1" x="0px" y="0px" viewBox="0 0 512 512" style="enable-background:new 0 0 512 512;" xml:space="preserve">
<polygon style="fill:#FF903D;" points="504.5,200.041 332.791,175.09 256,19.495 226,255.833 256,411.428 409.582,492.17   380.25,321.154 "/>
<g>
	<polygon style="fill:#FFB03B;" points="179.209,175.09 7.5,200.041 131.75,321.154 102.419,492.17 256,411.428 256,19.495  "/>
	<polygon style="fill:#FFB03B;" points="256,411.765 142.263,437.33 163.984,310.681 71.969,220.988 199.131,202.51 256,19.495    312.869,202.51 440.031,220.988 348.016,310.681 369.737,437.33  "/>
</g>
<g>
	<circle style="fill:#FF7472;" cx="163.5" cy="264.561" r="15"/>
	<circle style="fill:#FF7472;" cx="348.5" cy="264.561" r="15"/>
</g>
<path d="M511.633,198.061c-0.882-2.715-3.229-4.694-6.055-5.104l-167.807-24.384L263.252,17.581  c-0.694-2.635-2.795-4.747-5.548-5.39c-3.394-0.792-6.887,0.859-8.43,3.984l-75.046,152.059L6.422,192.619  c-2.825,0.411-5.173,2.389-6.055,5.104c-0.882,2.715-0.146,5.695,1.897,7.688l121.427,118.362L95.026,490.902  c-0.482,2.814,0.675,5.658,2.984,7.336c2.31,1.677,5.369,1.899,7.898,0.571l149.77-78.739l150.412,79.076  c1.098,0.577,2.296,0.861,3.489,0.861c1.556,0,3.103-0.483,4.409-1.432c2.31-1.678,3.467-4.522,2.984-7.336l-28.663-167.128  L509.736,205.75C511.779,203.757,512.515,200.776,511.633,198.061z M375.015,316.121c-1.768,1.723-2.574,4.206-2.156,6.639  l26.762,156.038l-138.414-72.769c-0.398-0.384-0.843-0.728-1.328-1.021c-2.251-1.358-5.044-1.44-7.368-0.219l-140.13,73.671  l26.762-156.038c0.418-2.433-0.389-4.916-2.156-6.639L23.617,205.278l156.67-22.766c2.443-0.355,4.555-1.89,5.647-4.103  L255.916,36.61l70.148,142.137c1.093,2.213,3.204,3.748,5.647,4.103l156.67,22.766L375.015,316.121z"/>
<path d="M303.5,272.062c-4.143,0-7.5,3.358-7.5,7.5c0,22.056-17.944,40-40,40s-40-17.944-40-40c0-4.142-3.357-7.5-7.5-7.5  s-7.5,3.358-7.5,7.5c0,30.327,24.673,55,55,55s55-24.673,55-55C311,275.42,307.643,272.062,303.5,272.062z"/>
<path d="M208.5,257.062c4.143,0,7.5-3.358,7.5-7.5v-17.5c0-4.142-3.357-7.5-7.5-7.5s-7.5,3.358-7.5,7.5v17.5  C201,253.704,204.357,257.062,208.5,257.062z"/>
<path d="M303.5,224.562c-4.143,0-7.5,3.358-7.5,7.5v17.5c0,4.142,3.357,7.5,7.5,7.5s7.5-3.358,7.5-7.5v-17.5  C311,227.92,307.643,224.562,303.5,224.562z"/>
<path d="M178.5,257.062c-4.143,0-7.5,3.358-7.5,7.5c0,4.136-3.364,7.5-7.5,7.5s-7.5-3.364-7.5-7.5s3.364-7.5,7.5-7.5  c4.143,0,7.5-3.358,7.5-7.5s-3.357-7.5-7.5-7.5c-12.406,0-22.5,10.093-22.5,22.5c0,12.407,10.094,22.5,22.5,22.5  s22.5-10.093,22.5-22.5C186,260.42,182.643,257.062,178.5,257.062z"/>
<path d="M348.5,287.062c12.406,0,22.5-10.093,22.5-22.5c0-4.142-3.357-7.5-7.5-7.5s-7.5,3.358-7.5,7.5c0,4.136-3.364,7.5-7.5,7.5  s-7.5-3.364-7.5-7.5s3.364-7.5,7.5-7.5c4.143,0,7.5-3.358,7.5-7.5s-3.357-7.5-7.5-7.5c-12.406,0-22.5,10.093-22.5,22.5  C326,276.969,336.094,287.062,348.5,287.062z"/>
<g>
</g>
<g>
</g>
<g>
</g>
<g>
</g>
<g>
</g>
<g>
</g>
<g>
</g>
<g>
</g>
<g>
</g>
<g>
</g>
<g>
</g>
<g>
</g>
<g>
</g>
<g>
</g>
<g>
</g>
</svg>
