<svg xmlns="http://www.w3.org/2000/svg" xmlns:xlink="http://www.w3.org/1999/xlink" version="1.1" x="0px" y="0px" viewBox="0 0 100 100" enable-background="new 0 0 100 100" xml:space="preserve"><g><path d="M49.7,50.1c0.2-0.1,0.3-0.2,0.3-0.2C50,49.9,49.9,49.9,49.7,50.1z"/><path d="M49.9,49.9c0.1,0,0.1,0,0.1,0C50,49.9,49.9,49.9,49.9,49.9z"/><path d="M49.8,49.8C48,48.5,37.6,38.3,37.2,38.3l-32.1,3c-0.1,0-0.1,0-0.1,0l25.3,18.3c0.3,0.2,17.9-9.2,19.6-9.8   c-1.9,0-24.7-4.7-37-7.1C25,45,47.2,48.9,49.8,49.8z"/><path d="M49.7,50.1C47.5,51.7,31,61.2,30.9,61.5l-9.6,29.7L49,74.7c0.3-0.2,0.6-22.6,0.9-24.7C49,52.1,34.3,72.7,26.3,84   C33.9,72.8,47.7,52.5,49.7,50.1z"/><path d="M50.3,50.1c2.1,2.3,15.9,22.7,23.5,33.9c-8-11.3-22.8-31.9-23.7-34c0.3,2.1,0.7,24.5,0.9,24.7l27.8,16.5l-9.6-29.7   C68.9,61.3,52.5,51.7,50.3,50.1z"/><path d="M50,50.1c0-0.1,0-0.2,0-0.2C50,49.9,50,50,50,50.1z"/><path d="M50,49.9c0,0,0,0.1,0,0.2C50,50,50,49.9,50,49.9z"/><path d="M50,49.9c0,0,0.1,0,0.1,0C50.1,49.9,50,49.9,50,49.9z"/><path d="M50.1,49.9c1.7,0.6,19.2,10.1,19.6,9.8L95,41.3c0,0,0,0-0.1,0l-32.1-3c-0.3,0-11,10.2-12.6,11.4c2.3-0.8,24.8-4.8,37-7   C74.9,45.2,52.1,49.9,50.1,49.9z"/><path d="M50.3,50.1c-0.1-0.2-0.2-0.2-0.3-0.2C50,49.9,50.1,50,50.3,50.1z"/><path d="M50,49.9c0,0-0.1-0.1-0.2-0.1C49.9,49.8,50,49.9,50,49.9z"/><path d="M50,49.9c0,0,0.1,0,0.2-0.1C50.1,49.8,50,49.9,50,49.9z"/><path d="M50,49.9C50,49.9,50,49.8,50,49.9C50,49.9,50,49.9,50,49.9z"/><path d="M50.5,14.9c0,11.7,0,33.2-0.4,34.9c0.6-1.1,11.3-12.3,11.2-12.6L50.6,7.5L38.8,37.2C38.7,37.5,49.5,48.9,50,49.8   C49.6,48.3,50.2,26.6,50.5,14.9z"/></g></svg>
